<mxfile host="Electron" modified="2024-04-07T19:53:35.465Z" agent="Mozilla/5.0 (Macintosh; Intel Mac OS X 10_15_7) AppleWebKit/537.36 (KHTML, like Gecko) draw.io/23.0.2 Chrome/120.0.6099.109 Electron/28.1.0 Safari/537.36" etag="TLw0NYRegWOBIQ2xmCE-" version="23.0.2" type="device">
  <diagram name="ページ1" id="0AUP286RhP0OKyosZ4Lt">
    <mxGraphModel dx="1193" dy="843" grid="1" gridSize="10" guides="1" tooltips="1" connect="1" arrows="1" fold="1" page="1" pageScale="1" pageWidth="1169" pageHeight="827" math="0" shadow="0">
      <root>
        <mxCell id="0" />
        <mxCell id="1" parent="0" />
        <mxCell id="hHBHKOwG4EZxjMmfL8vg-5" value="" style="sketch=0;outlineConnect=0;fontColor=#232F3E;gradientColor=none;fillColor=#232F3D;strokeColor=none;dashed=0;verticalLabelPosition=bottom;verticalAlign=top;align=center;html=1;fontSize=12;fontStyle=0;aspect=fixed;pointerEvents=1;shape=mxgraph.aws4.users;" parent="1" vertex="1">
          <mxGeometry x="40" y="74.00000000000003" width="38" height="38" as="geometry" />
        </mxCell>
        <mxCell id="hHBHKOwG4EZxjMmfL8vg-16" value="AWS Cloud" style="points=[[0,0],[0.25,0],[0.5,0],[0.75,0],[1,0],[1,0.25],[1,0.5],[1,0.75],[1,1],[0.75,1],[0.5,1],[0.25,1],[0,1],[0,0.75],[0,0.5],[0,0.25]];outlineConnect=0;gradientColor=none;html=1;whiteSpace=wrap;fontSize=12;fontStyle=0;container=1;pointerEvents=0;collapsible=0;recursiveResize=0;shape=mxgraph.aws4.group;grIcon=mxgraph.aws4.group_aws_cloud_alt;strokeColor=#232F3E;fillColor=none;verticalAlign=top;align=left;spacingLeft=30;fontColor=#232F3E;dashed=1;" parent="1" vertex="1">
          <mxGeometry x="150" y="30" width="734" height="420" as="geometry" />
        </mxCell>
        <mxCell id="hHBHKOwG4EZxjMmfL8vg-1" value="VPC" style="points=[[0,0],[0.25,0],[0.5,0],[0.75,0],[1,0],[1,0.25],[1,0.5],[1,0.75],[1,1],[0.75,1],[0.5,1],[0.25,1],[0,1],[0,0.75],[0,0.5],[0,0.25]];outlineConnect=0;gradientColor=none;html=1;whiteSpace=wrap;fontSize=12;fontStyle=0;container=1;pointerEvents=0;collapsible=0;recursiveResize=0;shape=mxgraph.aws4.group;grIcon=mxgraph.aws4.group_vpc2;strokeColor=#8C4FFF;fillColor=none;verticalAlign=top;align=left;spacingLeft=30;fontColor=#AAB7B8;dashed=0;" parent="hHBHKOwG4EZxjMmfL8vg-16" vertex="1">
          <mxGeometry x="160" y="40" width="423" height="320" as="geometry" />
        </mxCell>
        <mxCell id="hHBHKOwG4EZxjMmfL8vg-24" value="" style="sketch=0;outlineConnect=0;fontColor=#232F3E;gradientColor=none;fillColor=#8C4FFF;strokeColor=none;dashed=0;verticalLabelPosition=bottom;verticalAlign=top;align=center;html=1;fontSize=12;fontStyle=0;aspect=fixed;pointerEvents=1;shape=mxgraph.aws4.nat_gateway;" parent="hHBHKOwG4EZxjMmfL8vg-1" vertex="1">
          <mxGeometry x="399" y="78" width="43" height="43" as="geometry" />
        </mxCell>
        <mxCell id="hHBHKOwG4EZxjMmfL8vg-88" value="Private subnet" style="points=[[0,0],[0.25,0],[0.5,0],[0.75,0],[1,0],[1,0.25],[1,0.5],[1,0.75],[1,1],[0.75,1],[0.5,1],[0.25,1],[0,1],[0,0.75],[0,0.5],[0,0.25]];outlineConnect=0;gradientColor=none;html=1;whiteSpace=wrap;fontSize=12;fontStyle=0;container=1;pointerEvents=0;collapsible=0;recursiveResize=0;shape=mxgraph.aws4.group;grIcon=mxgraph.aws4.group_security_group;grStroke=0;strokeColor=#00A4A6;fillColor=#E6F6F7;verticalAlign=top;align=left;spacingLeft=30;fontColor=#147EBA;dashed=0;" parent="hHBHKOwG4EZxjMmfL8vg-1" vertex="1">
          <mxGeometry x="210" y="160" width="150" height="120" as="geometry" />
        </mxCell>
        <mxCell id="hHBHKOwG4EZxjMmfL8vg-89" value="" style="sketch=0;points=[[0,0,0],[0.25,0,0],[0.5,0,0],[0.75,0,0],[1,0,0],[0,1,0],[0.25,1,0],[0.5,1,0],[0.75,1,0],[1,1,0],[0,0.25,0],[0,0.5,0],[0,0.75,0],[1,0.25,0],[1,0.5,0],[1,0.75,0]];outlineConnect=0;fontColor=#232F3E;fillColor=#C925D1;strokeColor=#ffffff;dashed=0;verticalLabelPosition=bottom;verticalAlign=top;align=center;html=1;fontSize=12;fontStyle=0;aspect=fixed;shape=mxgraph.aws4.resourceIcon;resIcon=mxgraph.aws4.rds;" parent="hHBHKOwG4EZxjMmfL8vg-88" vertex="1">
          <mxGeometry x="50.5" y="40.5" width="49" height="49" as="geometry" />
        </mxCell>
        <mxCell id="hHBHKOwG4EZxjMmfL8vg-98" value="RDS" style="text;html=1;align=center;verticalAlign=middle;resizable=0;points=[];autosize=1;strokeColor=none;fillColor=none;" parent="hHBHKOwG4EZxjMmfL8vg-88" vertex="1">
          <mxGeometry x="50.5" y="17" width="50" height="30" as="geometry" />
        </mxCell>
        <mxCell id="hHBHKOwG4EZxjMmfL8vg-101" value="NAT" style="text;html=1;align=center;verticalAlign=middle;resizable=0;points=[];autosize=1;strokeColor=none;fillColor=none;" parent="hHBHKOwG4EZxjMmfL8vg-1" vertex="1">
          <mxGeometry x="373" y="60" width="50" height="30" as="geometry" />
        </mxCell>
        <mxCell id="hHBHKOwG4EZxjMmfL8vg-2" value="Private subnet" style="points=[[0,0],[0.25,0],[0.5,0],[0.75,0],[1,0],[1,0.25],[1,0.5],[1,0.75],[1,1],[0.75,1],[0.5,1],[0.25,1],[0,1],[0,0.75],[0,0.5],[0,0.25]];outlineConnect=0;gradientColor=none;html=1;whiteSpace=wrap;fontSize=12;fontStyle=0;container=1;pointerEvents=0;collapsible=0;recursiveResize=0;shape=mxgraph.aws4.group;grIcon=mxgraph.aws4.group_security_group;grStroke=0;strokeColor=#00A4A6;fillColor=#E6F6F7;verticalAlign=top;align=left;spacingLeft=30;fontColor=#147EBA;dashed=0;" parent="hHBHKOwG4EZxjMmfL8vg-16" vertex="1">
          <mxGeometry x="200" y="200" width="150" height="120" as="geometry" />
        </mxCell>
        <mxCell id="hHBHKOwG4EZxjMmfL8vg-11" value="api" style="sketch=0;outlineConnect=0;fontColor=#232F3E;gradientColor=none;strokeColor=#ffffff;fillColor=#232F3E;dashed=0;verticalLabelPosition=middle;verticalAlign=bottom;align=center;html=1;whiteSpace=wrap;fontSize=10;fontStyle=1;spacing=3;shape=mxgraph.aws4.productIcon;prIcon=mxgraph.aws4.ec2;" parent="hHBHKOwG4EZxjMmfL8vg-2" vertex="1">
          <mxGeometry x="32" y="35" width="48" height="60" as="geometry" />
        </mxCell>
        <mxCell id="hHBHKOwG4EZxjMmfL8vg-3" value="Public subnet" style="points=[[0,0],[0.25,0],[0.5,0],[0.75,0],[1,0],[1,0.25],[1,0.5],[1,0.75],[1,1],[0.75,1],[0.5,1],[0.25,1],[0,1],[0,0.75],[0,0.5],[0,0.25]];outlineConnect=0;gradientColor=none;html=1;whiteSpace=wrap;fontSize=12;fontStyle=0;container=1;pointerEvents=0;collapsible=0;recursiveResize=0;shape=mxgraph.aws4.group;grIcon=mxgraph.aws4.group_security_group;grStroke=0;strokeColor=#7AA116;fillColor=#F2F6E8;verticalAlign=top;align=left;spacingLeft=30;fontColor=#248814;dashed=0;" parent="hHBHKOwG4EZxjMmfL8vg-16" vertex="1">
          <mxGeometry x="200" y="80" width="320" height="100" as="geometry" />
        </mxCell>
        <mxCell id="hHBHKOwG4EZxjMmfL8vg-10" value="webapp" style="sketch=0;outlineConnect=0;fontColor=#232F3E;gradientColor=none;strokeColor=#ffffff;fillColor=#232F3E;dashed=0;verticalLabelPosition=middle;verticalAlign=bottom;align=center;html=1;whiteSpace=wrap;fontSize=10;fontStyle=1;spacing=3;shape=mxgraph.aws4.productIcon;prIcon=mxgraph.aws4.ec2;" parent="hHBHKOwG4EZxjMmfL8vg-3" vertex="1">
          <mxGeometry x="30" y="30" width="48" height="60" as="geometry" />
        </mxCell>
        <mxCell id="hHBHKOwG4EZxjMmfL8vg-15" value="" style="sketch=0;points=[[0,0,0],[0.25,0,0],[0.5,0,0],[0.75,0,0],[1,0,0],[0,1,0],[0.25,1,0],[0.5,1,0],[0.75,1,0],[1,1,0],[0,0.25,0],[0,0.5,0],[0,0.75,0],[1,0.25,0],[1,0.5,0],[1,0.75,0]];outlineConnect=0;fontColor=#232F3E;fillColor=#7AA116;strokeColor=#ffffff;dashed=0;verticalLabelPosition=bottom;verticalAlign=top;align=center;html=1;fontSize=12;fontStyle=0;aspect=fixed;shape=mxgraph.aws4.resourceIcon;resIcon=mxgraph.aws4.s3;" parent="hHBHKOwG4EZxjMmfL8vg-16" vertex="1">
          <mxGeometry x="640" y="280" width="48" height="48" as="geometry" />
        </mxCell>
        <mxCell id="hHBHKOwG4EZxjMmfL8vg-19" value="" style="sketch=0;outlineConnect=0;fontColor=#232F3E;gradientColor=none;fillColor=#8C4FFF;strokeColor=none;dashed=0;verticalLabelPosition=bottom;verticalAlign=top;align=center;html=1;fontSize=12;fontStyle=0;aspect=fixed;pointerEvents=1;shape=mxgraph.aws4.endpoint;" parent="hHBHKOwG4EZxjMmfL8vg-16" vertex="1">
          <mxGeometry x="237" y="340" width="38" height="38" as="geometry" />
        </mxCell>
        <mxCell id="hHBHKOwG4EZxjMmfL8vg-22" value="" style="edgeStyle=orthogonalEdgeStyle;rounded=0;orthogonalLoop=1;jettySize=auto;html=1;" parent="hHBHKOwG4EZxjMmfL8vg-16" source="hHBHKOwG4EZxjMmfL8vg-11" target="hHBHKOwG4EZxjMmfL8vg-19" edge="1">
          <mxGeometry relative="1" as="geometry" />
        </mxCell>
        <mxCell id="hHBHKOwG4EZxjMmfL8vg-23" value="" style="edgeStyle=orthogonalEdgeStyle;html=1;endArrow=block;elbow=vertical;startArrow=none;endFill=1;strokeColor=#545B64;rounded=0;entryX=0.5;entryY=1;entryDx=0;entryDy=0;entryPerimeter=0;" parent="hHBHKOwG4EZxjMmfL8vg-16" source="hHBHKOwG4EZxjMmfL8vg-19" target="hHBHKOwG4EZxjMmfL8vg-15" edge="1">
          <mxGeometry width="100" relative="1" as="geometry">
            <mxPoint x="450" y="470" as="sourcePoint" />
            <mxPoint x="550" y="470" as="targetPoint" />
            <Array as="points">
              <mxPoint x="256" y="400" />
              <mxPoint x="664" y="400" />
            </Array>
          </mxGeometry>
        </mxCell>
        <mxCell id="hHBHKOwG4EZxjMmfL8vg-33" value="" style="edgeStyle=orthogonalEdgeStyle;html=1;endArrow=block;elbow=vertical;startArrow=none;endFill=1;strokeColor=#545B64;rounded=0;" parent="hHBHKOwG4EZxjMmfL8vg-16" source="hHBHKOwG4EZxjMmfL8vg-10" target="hHBHKOwG4EZxjMmfL8vg-24" edge="1">
          <mxGeometry width="100" relative="1" as="geometry">
            <mxPoint x="440" y="320" as="sourcePoint" />
            <mxPoint x="540" y="320" as="targetPoint" />
          </mxGeometry>
        </mxCell>
        <mxCell id="hHBHKOwG4EZxjMmfL8vg-71" value="&lt;font style=&quot;font-size: 8px;&quot;&gt;CodePipeline&lt;/font&gt;" style="sketch=0;outlineConnect=0;fontColor=#232F3E;gradientColor=none;strokeColor=#ffffff;fillColor=#232F3E;dashed=0;verticalLabelPosition=middle;verticalAlign=bottom;align=center;html=1;whiteSpace=wrap;fontSize=10;fontStyle=1;spacing=3;shape=mxgraph.aws4.productIcon;prIcon=mxgraph.aws4.codepipeline;" parent="hHBHKOwG4EZxjMmfL8vg-16" vertex="1">
          <mxGeometry x="40" y="50" width="50" height="68.75" as="geometry" />
        </mxCell>
        <mxCell id="hHBHKOwG4EZxjMmfL8vg-72" value="&lt;font style=&quot;font-size: 7px;&quot;&gt;CodeBuild&lt;/font&gt;" style="sketch=0;outlineConnect=0;fontColor=#232F3E;gradientColor=none;strokeColor=#ffffff;fillColor=#232F3E;dashed=0;verticalLabelPosition=middle;verticalAlign=bottom;align=center;html=1;whiteSpace=wrap;fontSize=10;fontStyle=1;spacing=3;shape=mxgraph.aws4.productIcon;prIcon=mxgraph.aws4.codebuild;" parent="hHBHKOwG4EZxjMmfL8vg-16" vertex="1">
          <mxGeometry x="40" y="165.63" width="50" height="68.75" as="geometry" />
        </mxCell>
        <mxCell id="hHBHKOwG4EZxjMmfL8vg-73" value="&lt;font style=&quot;font-size: 7px;&quot;&gt;CodeDeploy&lt;/font&gt;" style="sketch=0;outlineConnect=0;fontColor=#232F3E;gradientColor=none;strokeColor=#ffffff;fillColor=#232F3E;dashed=0;verticalLabelPosition=middle;verticalAlign=bottom;align=center;html=1;whiteSpace=wrap;fontSize=10;fontStyle=1;spacing=3;shape=mxgraph.aws4.productIcon;prIcon=mxgraph.aws4.codedeploy;" parent="hHBHKOwG4EZxjMmfL8vg-16" vertex="1">
          <mxGeometry x="40" y="280" width="50" height="68.75" as="geometry" />
        </mxCell>
        <mxCell id="hHBHKOwG4EZxjMmfL8vg-75" value="" style="edgeStyle=orthogonalEdgeStyle;html=1;endArrow=block;elbow=vertical;startArrow=none;endFill=1;strokeColor=#545B64;rounded=0;" parent="hHBHKOwG4EZxjMmfL8vg-16" source="hHBHKOwG4EZxjMmfL8vg-71" target="hHBHKOwG4EZxjMmfL8vg-72" edge="1">
          <mxGeometry width="100" relative="1" as="geometry">
            <mxPoint x="-81" y="92" as="sourcePoint" />
            <mxPoint x="-81" y="150" as="targetPoint" />
          </mxGeometry>
        </mxCell>
        <mxCell id="hHBHKOwG4EZxjMmfL8vg-77" value="" style="edgeStyle=orthogonalEdgeStyle;html=1;endArrow=block;elbow=vertical;startArrow=none;endFill=1;strokeColor=#545B64;rounded=0;" parent="hHBHKOwG4EZxjMmfL8vg-16" source="hHBHKOwG4EZxjMmfL8vg-72" target="hHBHKOwG4EZxjMmfL8vg-73" edge="1">
          <mxGeometry width="100" relative="1" as="geometry">
            <mxPoint x="10" y="240" as="sourcePoint" />
            <mxPoint x="110" y="240" as="targetPoint" />
          </mxGeometry>
        </mxCell>
        <mxCell id="hHBHKOwG4EZxjMmfL8vg-78" value="" style="edgeStyle=orthogonalEdgeStyle;html=1;endArrow=block;elbow=vertical;startArrow=none;endFill=1;strokeColor=#545B64;rounded=0;" parent="hHBHKOwG4EZxjMmfL8vg-16" source="hHBHKOwG4EZxjMmfL8vg-73" target="hHBHKOwG4EZxjMmfL8vg-10" edge="1">
          <mxGeometry width="100" relative="1" as="geometry">
            <mxPoint x="10" y="240" as="sourcePoint" />
            <mxPoint x="110" y="240" as="targetPoint" />
            <Array as="points">
              <mxPoint x="120" y="314" />
              <mxPoint x="120" y="140" />
            </Array>
          </mxGeometry>
        </mxCell>
        <mxCell id="hHBHKOwG4EZxjMmfL8vg-79" value="" style="edgeStyle=orthogonalEdgeStyle;html=1;endArrow=block;elbow=vertical;startArrow=none;endFill=1;strokeColor=#545B64;rounded=0;" parent="hHBHKOwG4EZxjMmfL8vg-16" source="hHBHKOwG4EZxjMmfL8vg-73" target="hHBHKOwG4EZxjMmfL8vg-11" edge="1">
          <mxGeometry width="100" relative="1" as="geometry">
            <mxPoint x="10" y="240" as="sourcePoint" />
            <mxPoint x="110" y="240" as="targetPoint" />
            <Array as="points">
              <mxPoint x="120" y="314" />
              <mxPoint x="120" y="265" />
            </Array>
          </mxGeometry>
        </mxCell>
        <mxCell id="hHBHKOwG4EZxjMmfL8vg-95" value="" style="sketch=0;points=[[0,0,0],[0.25,0,0],[0.5,0,0],[0.75,0,0],[1,0,0],[0,1,0],[0.25,1,0],[0.5,1,0],[0.75,1,0],[1,1,0],[0,0.25,0],[0,0.5,0],[0,0.75,0],[1,0.25,0],[1,0.5,0],[1,0.75,0]];outlineConnect=0;fontColor=#232F3E;fillColor=#8C4FFF;strokeColor=#ffffff;dashed=0;verticalLabelPosition=bottom;verticalAlign=top;align=center;html=1;fontSize=12;fontStyle=0;aspect=fixed;shape=mxgraph.aws4.resourceIcon;resIcon=mxgraph.aws4.route_53;" parent="hHBHKOwG4EZxjMmfL8vg-16" vertex="1">
          <mxGeometry x="656" y="124.5" width="38" height="38" as="geometry" />
        </mxCell>
        <mxCell id="hHBHKOwG4EZxjMmfL8vg-96" value="S3" style="text;html=1;align=center;verticalAlign=middle;resizable=0;points=[];autosize=1;strokeColor=none;fillColor=none;" parent="hHBHKOwG4EZxjMmfL8vg-16" vertex="1">
          <mxGeometry x="644" y="258" width="40" height="30" as="geometry" />
        </mxCell>
        <mxCell id="hHBHKOwG4EZxjMmfL8vg-102" value="Route 53" style="text;html=1;align=center;verticalAlign=middle;resizable=0;points=[];autosize=1;strokeColor=none;fillColor=none;" parent="hHBHKOwG4EZxjMmfL8vg-16" vertex="1">
          <mxGeometry x="640" y="97.5" width="70" height="30" as="geometry" />
        </mxCell>
        <mxCell id="hHBHKOwG4EZxjMmfL8vg-106" value="VPN Endpoint" style="text;html=1;align=center;verticalAlign=middle;resizable=0;points=[];autosize=1;strokeColor=none;fillColor=none;" parent="hHBHKOwG4EZxjMmfL8vg-16" vertex="1">
          <mxGeometry x="150" y="357" width="100" height="30" as="geometry" />
        </mxCell>
        <mxCell id="hHBHKOwG4EZxjMmfL8vg-32" value="Option 1 (EC2)" style="text;html=1;align=center;verticalAlign=middle;resizable=0;points=[];autosize=1;strokeColor=none;fillColor=none;" parent="1" vertex="1">
          <mxGeometry x="130" width="100" height="30" as="geometry" />
        </mxCell>
        <mxCell id="hHBHKOwG4EZxjMmfL8vg-34" value="Option 2 (ECS)" style="text;html=1;align=center;verticalAlign=middle;resizable=0;points=[];autosize=1;strokeColor=none;fillColor=none;" parent="1" vertex="1">
          <mxGeometry x="120" y="480" width="100" height="30" as="geometry" />
        </mxCell>
        <mxCell id="hHBHKOwG4EZxjMmfL8vg-35" value="AWS Cloud" style="points=[[0,0],[0.25,0],[0.5,0],[0.75,0],[1,0],[1,0.25],[1,0.5],[1,0.75],[1,1],[0.75,1],[0.5,1],[0.25,1],[0,1],[0,0.75],[0,0.5],[0,0.25]];outlineConnect=0;gradientColor=none;html=1;whiteSpace=wrap;fontSize=12;fontStyle=0;container=1;pointerEvents=0;collapsible=0;recursiveResize=0;shape=mxgraph.aws4.group;grIcon=mxgraph.aws4.group_aws_cloud_alt;strokeColor=#232F3E;fillColor=none;verticalAlign=top;align=left;spacingLeft=30;fontColor=#232F3E;dashed=1;" parent="1" vertex="1">
          <mxGeometry x="150" y="510" width="734" height="540" as="geometry" />
        </mxCell>
        <mxCell id="hHBHKOwG4EZxjMmfL8vg-36" value="Private subnet" style="points=[[0,0],[0.25,0],[0.5,0],[0.75,0],[1,0],[1,0.25],[1,0.5],[1,0.75],[1,1],[0.75,1],[0.5,1],[0.25,1],[0,1],[0,0.75],[0,0.5],[0,0.25]];outlineConnect=0;gradientColor=none;html=1;whiteSpace=wrap;fontSize=12;fontStyle=0;container=1;pointerEvents=0;collapsible=0;recursiveResize=0;shape=mxgraph.aws4.group;grIcon=mxgraph.aws4.group_security_group;grStroke=0;strokeColor=#00A4A6;fillColor=#E6F6F7;verticalAlign=top;align=left;spacingLeft=30;fontColor=#147EBA;dashed=0;" parent="hHBHKOwG4EZxjMmfL8vg-35" vertex="1">
          <mxGeometry x="200" y="200" width="120" height="190" as="geometry" />
        </mxCell>
        <mxCell id="hHBHKOwG4EZxjMmfL8vg-41" value="webapp" style="sketch=0;outlineConnect=0;fontColor=#232F3E;gradientColor=none;strokeColor=#ffffff;fillColor=#232F3E;dashed=0;verticalLabelPosition=middle;verticalAlign=bottom;align=center;html=1;whiteSpace=wrap;fontSize=10;fontStyle=1;spacing=3;shape=mxgraph.aws4.productIcon;prIcon=mxgraph.aws4.ec2;" parent="hHBHKOwG4EZxjMmfL8vg-36" vertex="1">
          <mxGeometry x="30" y="35" width="48" height="60" as="geometry" />
        </mxCell>
        <mxCell id="hHBHKOwG4EZxjMmfL8vg-40" value="Public subnet" style="points=[[0,0],[0.25,0],[0.5,0],[0.75,0],[1,0],[1,0.25],[1,0.5],[1,0.75],[1,1],[0.75,1],[0.5,1],[0.25,1],[0,1],[0,0.75],[0,0.5],[0,0.25]];outlineConnect=0;gradientColor=none;html=1;whiteSpace=wrap;fontSize=12;fontStyle=0;container=1;pointerEvents=0;collapsible=0;recursiveResize=0;shape=mxgraph.aws4.group;grIcon=mxgraph.aws4.group_security_group;grStroke=0;strokeColor=#7AA116;fillColor=#F2F6E8;verticalAlign=top;align=left;spacingLeft=30;fontColor=#248814;dashed=0;" parent="hHBHKOwG4EZxjMmfL8vg-35" vertex="1">
          <mxGeometry x="200" y="80" width="320" height="100" as="geometry" />
        </mxCell>
        <mxCell id="hHBHKOwG4EZxjMmfL8vg-42" value="" style="sketch=0;points=[[0,0,0],[0.25,0,0],[0.5,0,0],[0.75,0,0],[1,0,0],[0,1,0],[0.25,1,0],[0.5,1,0],[0.75,1,0],[1,1,0],[0,0.25,0],[0,0.5,0],[0,0.75,0],[1,0.25,0],[1,0.5,0],[1,0.75,0]];outlineConnect=0;fontColor=#232F3E;fillColor=#7AA116;strokeColor=#ffffff;dashed=0;verticalLabelPosition=bottom;verticalAlign=top;align=center;html=1;fontSize=12;fontStyle=0;aspect=fixed;shape=mxgraph.aws4.resourceIcon;resIcon=mxgraph.aws4.s3;" parent="hHBHKOwG4EZxjMmfL8vg-35" vertex="1">
          <mxGeometry x="640" y="280" width="48" height="48" as="geometry" />
        </mxCell>
        <mxCell id="hHBHKOwG4EZxjMmfL8vg-45" value="" style="edgeStyle=orthogonalEdgeStyle;html=1;endArrow=block;elbow=vertical;startArrow=none;endFill=1;strokeColor=#545B64;rounded=0;entryX=0.5;entryY=1;entryDx=0;entryDy=0;entryPerimeter=0;" parent="hHBHKOwG4EZxjMmfL8vg-35" source="hHBHKOwG4EZxjMmfL8vg-43" target="hHBHKOwG4EZxjMmfL8vg-42" edge="1">
          <mxGeometry width="100" relative="1" as="geometry">
            <mxPoint x="450" y="470" as="sourcePoint" />
            <mxPoint x="550" y="470" as="targetPoint" />
            <Array as="points">
              <mxPoint x="359" y="530" />
              <mxPoint x="664" y="530" />
            </Array>
          </mxGeometry>
        </mxCell>
        <mxCell id="hHBHKOwG4EZxjMmfL8vg-46" value="VPC" style="points=[[0,0],[0.25,0],[0.5,0],[0.75,0],[1,0],[1,0.25],[1,0.5],[1,0.75],[1,1],[0.75,1],[0.5,1],[0.25,1],[0,1],[0,0.75],[0,0.5],[0,0.25]];outlineConnect=0;gradientColor=none;html=1;whiteSpace=wrap;fontSize=12;fontStyle=0;container=1;pointerEvents=0;collapsible=0;recursiveResize=0;shape=mxgraph.aws4.group;grIcon=mxgraph.aws4.group_vpc2;strokeColor=#8C4FFF;fillColor=none;verticalAlign=top;align=left;spacingLeft=30;fontColor=#AAB7B8;dashed=0;" parent="hHBHKOwG4EZxjMmfL8vg-35" vertex="1">
          <mxGeometry x="160" y="40" width="423" height="460" as="geometry" />
        </mxCell>
        <mxCell id="hHBHKOwG4EZxjMmfL8vg-47" value="" style="sketch=0;outlineConnect=0;fontColor=#232F3E;gradientColor=none;fillColor=#8C4FFF;strokeColor=none;dashed=0;verticalLabelPosition=bottom;verticalAlign=top;align=center;html=1;fontSize=12;fontStyle=0;aspect=fixed;pointerEvents=1;shape=mxgraph.aws4.nat_gateway;" parent="hHBHKOwG4EZxjMmfL8vg-46" vertex="1">
          <mxGeometry x="399" y="78" width="43" height="43" as="geometry" />
        </mxCell>
        <mxCell id="hHBHKOwG4EZxjMmfL8vg-48" value="" style="sketch=0;outlineConnect=0;fontColor=#232F3E;gradientColor=none;fillColor=#8C4FFF;strokeColor=none;dashed=0;verticalLabelPosition=bottom;verticalAlign=top;align=center;html=1;fontSize=12;fontStyle=0;aspect=fixed;pointerEvents=1;shape=mxgraph.aws4.network_load_balancer;" parent="hHBHKOwG4EZxjMmfL8vg-46" vertex="1">
          <mxGeometry x="180.5" y="78" width="44" height="44" as="geometry" />
        </mxCell>
        <mxCell id="hHBHKOwG4EZxjMmfL8vg-49" value="ELB" style="text;html=1;align=center;verticalAlign=middle;resizable=0;points=[];autosize=1;strokeColor=none;fillColor=none;" parent="hHBHKOwG4EZxjMmfL8vg-46" vertex="1">
          <mxGeometry x="136.5" y="85" width="50" height="30" as="geometry" />
        </mxCell>
        <mxCell id="hHBHKOwG4EZxjMmfL8vg-52" value="" style="edgeStyle=orthogonalEdgeStyle;html=1;endArrow=block;elbow=vertical;startArrow=none;endFill=1;strokeColor=#545B64;rounded=0;" parent="hHBHKOwG4EZxjMmfL8vg-46" source="hHBHKOwG4EZxjMmfL8vg-48" target="hHBHKOwG4EZxjMmfL8vg-47" edge="1">
          <mxGeometry width="100" relative="1" as="geometry">
            <mxPoint x="270" y="20" as="sourcePoint" />
            <mxPoint x="370" y="20" as="targetPoint" />
          </mxGeometry>
        </mxCell>
        <mxCell id="hHBHKOwG4EZxjMmfL8vg-37" value="api" style="sketch=0;outlineConnect=0;fontColor=#232F3E;gradientColor=none;strokeColor=#ffffff;fillColor=#232F3E;dashed=0;verticalLabelPosition=middle;verticalAlign=bottom;align=center;html=1;whiteSpace=wrap;fontSize=10;fontStyle=1;spacing=3;shape=mxgraph.aws4.productIcon;prIcon=mxgraph.aws4.ec2;" parent="hHBHKOwG4EZxjMmfL8vg-46" vertex="1">
          <mxGeometry x="70" y="274" width="48" height="60" as="geometry" />
        </mxCell>
        <mxCell id="hHBHKOwG4EZxjMmfL8vg-54" value="Private subnet" style="points=[[0,0],[0.25,0],[0.5,0],[0.75,0],[1,0],[1,0.25],[1,0.5],[1,0.75],[1,1],[0.75,1],[0.5,1],[0.25,1],[0,1],[0,0.75],[0,0.5],[0,0.25]];outlineConnect=0;gradientColor=none;html=1;whiteSpace=wrap;fontSize=12;fontStyle=0;container=1;pointerEvents=0;collapsible=0;recursiveResize=0;shape=mxgraph.aws4.group;grIcon=mxgraph.aws4.group_security_group;grStroke=0;strokeColor=#00A4A6;fillColor=#E6F6F7;verticalAlign=top;align=left;spacingLeft=30;fontColor=#147EBA;dashed=0;" parent="hHBHKOwG4EZxjMmfL8vg-46" vertex="1">
          <mxGeometry x="240" y="161" width="120" height="189" as="geometry" />
        </mxCell>
        <mxCell id="hHBHKOwG4EZxjMmfL8vg-55" value="webapp" style="sketch=0;outlineConnect=0;fontColor=#232F3E;gradientColor=none;strokeColor=#ffffff;fillColor=#232F3E;dashed=0;verticalLabelPosition=middle;verticalAlign=bottom;align=center;html=1;whiteSpace=wrap;fontSize=10;fontStyle=1;spacing=3;shape=mxgraph.aws4.productIcon;prIcon=mxgraph.aws4.ec2;" parent="hHBHKOwG4EZxjMmfL8vg-54" vertex="1">
          <mxGeometry x="30" y="35" width="48" height="60" as="geometry" />
        </mxCell>
        <mxCell id="hHBHKOwG4EZxjMmfL8vg-56" value="api" style="sketch=0;outlineConnect=0;fontColor=#232F3E;gradientColor=none;strokeColor=#ffffff;fillColor=#232F3E;dashed=0;verticalLabelPosition=middle;verticalAlign=bottom;align=center;html=1;whiteSpace=wrap;fontSize=10;fontStyle=1;spacing=3;shape=mxgraph.aws4.productIcon;prIcon=mxgraph.aws4.ec2;" parent="hHBHKOwG4EZxjMmfL8vg-46" vertex="1">
          <mxGeometry x="270" y="274" width="48" height="60" as="geometry" />
        </mxCell>
        <mxCell id="hHBHKOwG4EZxjMmfL8vg-43" value="" style="sketch=0;outlineConnect=0;fontColor=#232F3E;gradientColor=none;fillColor=#8C4FFF;strokeColor=none;dashed=0;verticalLabelPosition=bottom;verticalAlign=top;align=center;html=1;fontSize=12;fontStyle=0;aspect=fixed;pointerEvents=1;shape=mxgraph.aws4.endpoint;" parent="hHBHKOwG4EZxjMmfL8vg-46" vertex="1">
          <mxGeometry x="180" y="441" width="38" height="38" as="geometry" />
        </mxCell>
        <mxCell id="hHBHKOwG4EZxjMmfL8vg-44" value="" style="edgeStyle=orthogonalEdgeStyle;rounded=0;orthogonalLoop=1;jettySize=auto;html=1;" parent="hHBHKOwG4EZxjMmfL8vg-46" source="hHBHKOwG4EZxjMmfL8vg-37" target="hHBHKOwG4EZxjMmfL8vg-43" edge="1">
          <mxGeometry relative="1" as="geometry">
            <Array as="points">
              <mxPoint x="94" y="420" />
              <mxPoint x="199" y="420" />
            </Array>
          </mxGeometry>
        </mxCell>
        <mxCell id="hHBHKOwG4EZxjMmfL8vg-59" value="" style="edgeStyle=orthogonalEdgeStyle;rounded=0;orthogonalLoop=1;jettySize=auto;html=1;" parent="hHBHKOwG4EZxjMmfL8vg-46" source="hHBHKOwG4EZxjMmfL8vg-56" target="hHBHKOwG4EZxjMmfL8vg-43" edge="1">
          <mxGeometry relative="1" as="geometry">
            <mxPoint x="128" y="314" as="sourcePoint" />
            <mxPoint x="209" y="451" as="targetPoint" />
            <Array as="points">
              <mxPoint x="294" y="420" />
              <mxPoint x="199" y="420" />
            </Array>
          </mxGeometry>
        </mxCell>
        <mxCell id="hHBHKOwG4EZxjMmfL8vg-61" value="" style="edgeStyle=orthogonalEdgeStyle;html=1;endArrow=block;elbow=vertical;startArrow=none;endFill=1;strokeColor=#545B64;rounded=0;entryX=0.5;entryY=0;entryDx=0;entryDy=0;" parent="hHBHKOwG4EZxjMmfL8vg-46" source="hHBHKOwG4EZxjMmfL8vg-48" target="hHBHKOwG4EZxjMmfL8vg-54" edge="1">
          <mxGeometry width="100" relative="1" as="geometry">
            <mxPoint x="224.5" y="180" as="sourcePoint" />
            <mxPoint x="124.5" y="218" as="targetPoint" />
            <Array as="points">
              <mxPoint x="200" y="150" />
              <mxPoint x="300" y="150" />
            </Array>
          </mxGeometry>
        </mxCell>
        <mxCell id="hHBHKOwG4EZxjMmfL8vg-62" value="ECS" style="points=[[0,0],[0.25,0],[0.5,0],[0.75,0],[1,0],[1,0.25],[1,0.5],[1,0.75],[1,1],[0.75,1],[0.5,1],[0.25,1],[0,1],[0,0.75],[0,0.5],[0,0.25]];outlineConnect=0;gradientColor=none;html=1;whiteSpace=wrap;fontSize=12;fontStyle=0;container=1;pointerEvents=0;collapsible=0;recursiveResize=0;shape=mxgraph.aws4.group;grIcon=mxgraph.aws4.group_elastic_beanstalk;strokeColor=#D86613;fillColor=none;verticalAlign=top;align=left;spacingLeft=30;fontColor=#D86613;dashed=0;" parent="hHBHKOwG4EZxjMmfL8vg-46" vertex="1">
          <mxGeometry x="10" y="190" width="380" height="150" as="geometry" />
        </mxCell>
        <mxCell id="ZHCrSdB-bxYnleiKWtYW-1" value="" style="image;sketch=0;aspect=fixed;html=1;points=[];align=center;fontSize=12;image=img/lib/mscae/Docker.svg;" vertex="1" parent="hHBHKOwG4EZxjMmfL8vg-62">
          <mxGeometry x="110" y="33.45" width="27.5" height="22.55" as="geometry" />
        </mxCell>
        <mxCell id="ZHCrSdB-bxYnleiKWtYW-2" value="" style="image;sketch=0;aspect=fixed;html=1;points=[];align=center;fontSize=12;image=img/lib/mscae/Docker.svg;" vertex="1" parent="hHBHKOwG4EZxjMmfL8vg-62">
          <mxGeometry x="108" y="106.20000000000005" width="27.5" height="22.55" as="geometry" />
        </mxCell>
        <mxCell id="ZHCrSdB-bxYnleiKWtYW-3" value="" style="image;sketch=0;aspect=fixed;html=1;points=[];align=center;fontSize=12;image=img/lib/mscae/Docker.svg;" vertex="1" parent="hHBHKOwG4EZxjMmfL8vg-62">
          <mxGeometry x="310" y="33.450000000000045" width="27.5" height="22.55" as="geometry" />
        </mxCell>
        <mxCell id="ZHCrSdB-bxYnleiKWtYW-4" value="" style="image;sketch=0;aspect=fixed;html=1;points=[];align=center;fontSize=12;image=img/lib/mscae/Docker.svg;" vertex="1" parent="hHBHKOwG4EZxjMmfL8vg-62">
          <mxGeometry x="310" y="106.20000000000005" width="27.5" height="22.55" as="geometry" />
        </mxCell>
        <mxCell id="hHBHKOwG4EZxjMmfL8vg-90" value="&lt;font style=&quot;font-size: 10px;&quot;&gt;Private subnet&lt;/font&gt;" style="points=[[0,0],[0.25,0],[0.5,0],[0.75,0],[1,0],[1,0.25],[1,0.5],[1,0.75],[1,1],[0.75,1],[0.5,1],[0.25,1],[0,1],[0,0.75],[0,0.5],[0,0.25]];outlineConnect=0;gradientColor=none;html=1;whiteSpace=wrap;fontSize=12;fontStyle=0;container=1;pointerEvents=0;collapsible=0;recursiveResize=0;shape=mxgraph.aws4.group;grIcon=mxgraph.aws4.group_security_group;grStroke=0;strokeColor=#00A4A6;fillColor=#E6F6F7;verticalAlign=top;align=left;spacingLeft=30;fontColor=#147EBA;dashed=0;" parent="hHBHKOwG4EZxjMmfL8vg-46" vertex="1">
          <mxGeometry x="310" y="360" width="100" height="90" as="geometry" />
        </mxCell>
        <mxCell id="hHBHKOwG4EZxjMmfL8vg-57" value="" style="sketch=0;points=[[0,0,0],[0.25,0,0],[0.5,0,0],[0.75,0,0],[1,0,0],[0,1,0],[0.25,1,0],[0.5,1,0],[0.75,1,0],[1,1,0],[0,0.25,0],[0,0.5,0],[0,0.75,0],[1,0.25,0],[1,0.5,0],[1,0.75,0]];outlineConnect=0;fontColor=#232F3E;fillColor=#C925D1;strokeColor=#ffffff;dashed=0;verticalLabelPosition=bottom;verticalAlign=top;align=center;html=1;fontSize=12;fontStyle=0;aspect=fixed;shape=mxgraph.aws4.resourceIcon;resIcon=mxgraph.aws4.rds;" parent="hHBHKOwG4EZxjMmfL8vg-90" vertex="1">
          <mxGeometry x="22.75" y="39.5" width="44.5" height="44.5" as="geometry" />
        </mxCell>
        <mxCell id="hHBHKOwG4EZxjMmfL8vg-99" value="RDS" style="text;html=1;align=center;verticalAlign=middle;resizable=0;points=[];autosize=1;strokeColor=none;fillColor=none;" parent="hHBHKOwG4EZxjMmfL8vg-90" vertex="1">
          <mxGeometry x="20" y="18" width="50" height="30" as="geometry" />
        </mxCell>
        <mxCell id="hHBHKOwG4EZxjMmfL8vg-100" value="NAT" style="text;html=1;align=center;verticalAlign=middle;resizable=0;points=[];autosize=1;strokeColor=none;fillColor=none;" parent="hHBHKOwG4EZxjMmfL8vg-46" vertex="1">
          <mxGeometry x="373" y="55" width="50" height="30" as="geometry" />
        </mxCell>
        <mxCell id="hHBHKOwG4EZxjMmfL8vg-60" value="" style="edgeStyle=orthogonalEdgeStyle;html=1;endArrow=block;elbow=vertical;startArrow=none;endFill=1;strokeColor=#545B64;rounded=0;" parent="hHBHKOwG4EZxjMmfL8vg-35" source="hHBHKOwG4EZxjMmfL8vg-48" target="hHBHKOwG4EZxjMmfL8vg-36" edge="1">
          <mxGeometry width="100" relative="1" as="geometry">
            <mxPoint x="309" y="280" as="sourcePoint" />
            <mxPoint x="409" y="280" as="targetPoint" />
            <Array as="points">
              <mxPoint x="360" y="190" />
              <mxPoint x="260" y="190" />
            </Array>
          </mxGeometry>
        </mxCell>
        <mxCell id="hHBHKOwG4EZxjMmfL8vg-97" value="S3" style="text;html=1;align=center;verticalAlign=middle;resizable=0;points=[];autosize=1;strokeColor=none;fillColor=none;" parent="hHBHKOwG4EZxjMmfL8vg-35" vertex="1">
          <mxGeometry x="644" y="256" width="40" height="30" as="geometry" />
        </mxCell>
        <mxCell id="hHBHKOwG4EZxjMmfL8vg-103" value="" style="sketch=0;points=[[0,0,0],[0.25,0,0],[0.5,0,0],[0.75,0,0],[1,0,0],[0,1,0],[0.25,1,0],[0.5,1,0],[0.75,1,0],[1,1,0],[0,0.25,0],[0,0.5,0],[0,0.75,0],[1,0.25,0],[1,0.5,0],[1,0.75,0]];outlineConnect=0;fontColor=#232F3E;fillColor=#8C4FFF;strokeColor=#ffffff;dashed=0;verticalLabelPosition=bottom;verticalAlign=top;align=center;html=1;fontSize=12;fontStyle=0;aspect=fixed;shape=mxgraph.aws4.resourceIcon;resIcon=mxgraph.aws4.route_53;" parent="hHBHKOwG4EZxjMmfL8vg-35" vertex="1">
          <mxGeometry x="645" y="124.5" width="38" height="38" as="geometry" />
        </mxCell>
        <mxCell id="hHBHKOwG4EZxjMmfL8vg-104" value="Route 53" style="text;html=1;align=center;verticalAlign=middle;resizable=0;points=[];autosize=1;strokeColor=none;fillColor=none;" parent="hHBHKOwG4EZxjMmfL8vg-35" vertex="1">
          <mxGeometry x="629" y="97.5" width="70" height="30" as="geometry" />
        </mxCell>
        <mxCell id="hHBHKOwG4EZxjMmfL8vg-105" value="VPN Endpoint" style="text;html=1;align=center;verticalAlign=middle;resizable=0;points=[];autosize=1;strokeColor=none;fillColor=none;" parent="hHBHKOwG4EZxjMmfL8vg-35" vertex="1">
          <mxGeometry x="251" y="500" width="100" height="30" as="geometry" />
        </mxCell>
        <mxCell id="hHBHKOwG4EZxjMmfL8vg-112" value="&lt;font style=&quot;font-size: 8px;&quot;&gt;CodePipeline&lt;/font&gt;" style="sketch=0;outlineConnect=0;fontColor=#232F3E;gradientColor=none;strokeColor=#ffffff;fillColor=#232F3E;dashed=0;verticalLabelPosition=middle;verticalAlign=bottom;align=center;html=1;whiteSpace=wrap;fontSize=10;fontStyle=1;spacing=3;shape=mxgraph.aws4.productIcon;prIcon=mxgraph.aws4.codepipeline;" parent="hHBHKOwG4EZxjMmfL8vg-35" vertex="1">
          <mxGeometry x="40" y="60" width="50" height="68.75" as="geometry" />
        </mxCell>
        <mxCell id="hHBHKOwG4EZxjMmfL8vg-113" value="&lt;font style=&quot;font-size: 7px;&quot;&gt;CodeBuild&lt;/font&gt;" style="sketch=0;outlineConnect=0;fontColor=#232F3E;gradientColor=none;strokeColor=#ffffff;fillColor=#232F3E;dashed=0;verticalLabelPosition=middle;verticalAlign=bottom;align=center;html=1;whiteSpace=wrap;fontSize=10;fontStyle=1;spacing=3;shape=mxgraph.aws4.productIcon;prIcon=mxgraph.aws4.codebuild;" parent="hHBHKOwG4EZxjMmfL8vg-35" vertex="1">
          <mxGeometry x="40" y="175.63" width="50" height="68.75" as="geometry" />
        </mxCell>
        <mxCell id="hHBHKOwG4EZxjMmfL8vg-114" value="&lt;font style=&quot;font-size: 7px;&quot;&gt;CodeDeploy&lt;/font&gt;" style="sketch=0;outlineConnect=0;fontColor=#232F3E;gradientColor=none;strokeColor=#ffffff;fillColor=#232F3E;dashed=0;verticalLabelPosition=middle;verticalAlign=bottom;align=center;html=1;whiteSpace=wrap;fontSize=10;fontStyle=1;spacing=3;shape=mxgraph.aws4.productIcon;prIcon=mxgraph.aws4.codedeploy;" parent="hHBHKOwG4EZxjMmfL8vg-35" vertex="1">
          <mxGeometry x="40" y="290" width="50" height="68.75" as="geometry" />
        </mxCell>
        <mxCell id="hHBHKOwG4EZxjMmfL8vg-116" value="" style="edgeStyle=orthogonalEdgeStyle;html=1;endArrow=block;elbow=vertical;startArrow=none;endFill=1;strokeColor=#545B64;rounded=0;" parent="hHBHKOwG4EZxjMmfL8vg-35" source="hHBHKOwG4EZxjMmfL8vg-112" target="hHBHKOwG4EZxjMmfL8vg-113" edge="1">
          <mxGeometry width="100" relative="1" as="geometry">
            <mxPoint x="280" y="180" as="sourcePoint" />
            <mxPoint x="380" y="180" as="targetPoint" />
          </mxGeometry>
        </mxCell>
        <mxCell id="hHBHKOwG4EZxjMmfL8vg-117" value="" style="edgeStyle=orthogonalEdgeStyle;html=1;endArrow=block;elbow=vertical;startArrow=none;endFill=1;strokeColor=#545B64;rounded=0;" parent="hHBHKOwG4EZxjMmfL8vg-35" source="hHBHKOwG4EZxjMmfL8vg-113" target="hHBHKOwG4EZxjMmfL8vg-114" edge="1">
          <mxGeometry width="100" relative="1" as="geometry">
            <mxPoint x="280" y="180" as="sourcePoint" />
            <mxPoint x="380" y="180" as="targetPoint" />
          </mxGeometry>
        </mxCell>
        <mxCell id="hHBHKOwG4EZxjMmfL8vg-118" value="" style="edgeStyle=orthogonalEdgeStyle;html=1;endArrow=block;elbow=vertical;startArrow=none;endFill=1;strokeColor=#545B64;rounded=0;" parent="hHBHKOwG4EZxjMmfL8vg-35" source="hHBHKOwG4EZxjMmfL8vg-114" target="hHBHKOwG4EZxjMmfL8vg-41" edge="1">
          <mxGeometry width="100" relative="1" as="geometry">
            <mxPoint x="280" y="180" as="sourcePoint" />
            <mxPoint x="380" y="180" as="targetPoint" />
            <Array as="points">
              <mxPoint x="140" y="324" />
              <mxPoint x="140" y="265" />
            </Array>
          </mxGeometry>
        </mxCell>
        <mxCell id="hHBHKOwG4EZxjMmfL8vg-119" value="" style="edgeStyle=orthogonalEdgeStyle;html=1;endArrow=block;elbow=vertical;startArrow=none;endFill=1;strokeColor=#545B64;rounded=0;" parent="hHBHKOwG4EZxjMmfL8vg-35" source="hHBHKOwG4EZxjMmfL8vg-114" target="hHBHKOwG4EZxjMmfL8vg-37" edge="1">
          <mxGeometry width="100" relative="1" as="geometry">
            <mxPoint x="280" y="180" as="sourcePoint" />
            <mxPoint x="380" y="180" as="targetPoint" />
            <Array as="points">
              <mxPoint x="140" y="324" />
              <mxPoint x="140" y="344" />
            </Array>
          </mxGeometry>
        </mxCell>
        <mxCell id="hHBHKOwG4EZxjMmfL8vg-67" value="Dev team" style="text;html=1;align=center;verticalAlign=middle;resizable=0;points=[];autosize=1;strokeColor=none;fillColor=none;" parent="1" vertex="1">
          <mxGeometry x="24" y="40" width="70" height="30" as="geometry" />
        </mxCell>
        <mxCell id="hHBHKOwG4EZxjMmfL8vg-68" value="" style="dashed=0;outlineConnect=0;html=1;align=center;labelPosition=center;verticalLabelPosition=bottom;verticalAlign=top;shape=mxgraph.weblogos.github" parent="1" vertex="1">
          <mxGeometry x="39" y="172" width="40" height="40" as="geometry" />
        </mxCell>
        <mxCell id="hHBHKOwG4EZxjMmfL8vg-69" value="" style="sketch=0;outlineConnect=0;fontColor=#232F3E;gradientColor=none;fillColor=#232F3D;strokeColor=none;dashed=0;verticalLabelPosition=bottom;verticalAlign=top;align=center;html=1;fontSize=12;fontStyle=0;aspect=fixed;pointerEvents=1;shape=mxgraph.aws4.source_code;" parent="1" vertex="1">
          <mxGeometry x="18.08" y="130" width="21.92" height="30" as="geometry" />
        </mxCell>
        <mxCell id="hHBHKOwG4EZxjMmfL8vg-70" value="" style="edgeStyle=orthogonalEdgeStyle;html=1;endArrow=block;elbow=vertical;startArrow=none;endFill=1;strokeColor=#545B64;rounded=0;" parent="1" source="hHBHKOwG4EZxjMmfL8vg-5" target="hHBHKOwG4EZxjMmfL8vg-68" edge="1">
          <mxGeometry width="100" relative="1" as="geometry">
            <mxPoint x="340" y="514" as="sourcePoint" />
            <mxPoint x="440" y="514" as="targetPoint" />
          </mxGeometry>
        </mxCell>
        <mxCell id="hHBHKOwG4EZxjMmfL8vg-74" value="" style="edgeStyle=orthogonalEdgeStyle;html=1;endArrow=block;elbow=vertical;startArrow=none;endFill=1;strokeColor=#545B64;rounded=0;" parent="1" target="hHBHKOwG4EZxjMmfL8vg-71" edge="1">
          <mxGeometry width="100" relative="1" as="geometry">
            <mxPoint x="80" y="191" as="sourcePoint" />
            <mxPoint x="69" y="180" as="targetPoint" />
            <Array as="points">
              <mxPoint x="80" y="191" />
              <mxPoint x="170" y="191" />
              <mxPoint x="170" y="114" />
            </Array>
          </mxGeometry>
        </mxCell>
        <mxCell id="hHBHKOwG4EZxjMmfL8vg-121" value="" style="edgeStyle=orthogonalEdgeStyle;rounded=0;orthogonalLoop=1;jettySize=auto;html=1;" parent="1" source="hHBHKOwG4EZxjMmfL8vg-91" target="hHBHKOwG4EZxjMmfL8vg-93" edge="1">
          <mxGeometry relative="1" as="geometry" />
        </mxCell>
        <mxCell id="hHBHKOwG4EZxjMmfL8vg-91" value="" style="sketch=0;outlineConnect=0;fontColor=#232F3E;gradientColor=none;fillColor=#232F3D;strokeColor=none;dashed=0;verticalLabelPosition=bottom;verticalAlign=top;align=center;html=1;fontSize=12;fontStyle=0;aspect=fixed;pointerEvents=1;shape=mxgraph.aws4.users;" parent="1" vertex="1">
          <mxGeometry x="1040" y="65.00000000000003" width="38" height="38" as="geometry" />
        </mxCell>
        <mxCell id="hHBHKOwG4EZxjMmfL8vg-92" value="Users" style="text;html=1;align=center;verticalAlign=middle;resizable=0;points=[];autosize=1;strokeColor=none;fillColor=none;" parent="1" vertex="1">
          <mxGeometry x="1034" y="37" width="50" height="30" as="geometry" />
        </mxCell>
        <mxCell id="hHBHKOwG4EZxjMmfL8vg-122" value="" style="edgeStyle=orthogonalEdgeStyle;rounded=0;orthogonalLoop=1;jettySize=auto;html=1;" parent="1" source="hHBHKOwG4EZxjMmfL8vg-93" target="hHBHKOwG4EZxjMmfL8vg-94" edge="1">
          <mxGeometry relative="1" as="geometry" />
        </mxCell>
        <mxCell id="hHBHKOwG4EZxjMmfL8vg-93" value="" style="sketch=0;outlineConnect=0;fontColor=#232F3E;gradientColor=none;fillColor=#232F3D;strokeColor=none;dashed=0;verticalLabelPosition=bottom;verticalAlign=top;align=center;html=1;fontSize=12;fontStyle=0;aspect=fixed;pointerEvents=1;shape=mxgraph.aws4.client;" parent="1" vertex="1">
          <mxGeometry x="1040" y="145" width="39" height="38" as="geometry" />
        </mxCell>
        <mxCell id="hHBHKOwG4EZxjMmfL8vg-123" value="" style="edgeStyle=orthogonalEdgeStyle;rounded=0;orthogonalLoop=1;jettySize=auto;html=1;entryX=1;entryY=0.25;entryDx=0;entryDy=0;entryPerimeter=0;" parent="1" source="hHBHKOwG4EZxjMmfL8vg-94" target="hHBHKOwG4EZxjMmfL8vg-95" edge="1">
          <mxGeometry relative="1" as="geometry" />
        </mxCell>
        <mxCell id="hHBHKOwG4EZxjMmfL8vg-94" value="" style="sketch=0;outlineConnect=0;fontColor=#232F3E;gradientColor=none;fillColor=#232F3D;strokeColor=none;dashed=0;verticalLabelPosition=bottom;verticalAlign=top;align=center;html=1;fontSize=12;fontStyle=0;aspect=fixed;pointerEvents=1;shape=mxgraph.aws4.internet_alt1;" parent="1" vertex="1">
          <mxGeometry x="940" y="149" width="48.75" height="30" as="geometry" />
        </mxCell>
        <mxCell id="hHBHKOwG4EZxjMmfL8vg-107" value="" style="sketch=0;outlineConnect=0;fontColor=#232F3E;gradientColor=none;fillColor=#232F3D;strokeColor=none;dashed=0;verticalLabelPosition=bottom;verticalAlign=top;align=center;html=1;fontSize=12;fontStyle=0;aspect=fixed;pointerEvents=1;shape=mxgraph.aws4.users;" parent="1" vertex="1">
          <mxGeometry x="42.96" y="554" width="38" height="38" as="geometry" />
        </mxCell>
        <mxCell id="hHBHKOwG4EZxjMmfL8vg-108" value="Dev team" style="text;html=1;align=center;verticalAlign=middle;resizable=0;points=[];autosize=1;strokeColor=none;fillColor=none;" parent="1" vertex="1">
          <mxGeometry x="26.96" y="520" width="70" height="30" as="geometry" />
        </mxCell>
        <mxCell id="hHBHKOwG4EZxjMmfL8vg-109" value="" style="dashed=0;outlineConnect=0;html=1;align=center;labelPosition=center;verticalLabelPosition=bottom;verticalAlign=top;shape=mxgraph.weblogos.github" parent="1" vertex="1">
          <mxGeometry x="41.96" y="652" width="40" height="40" as="geometry" />
        </mxCell>
        <mxCell id="hHBHKOwG4EZxjMmfL8vg-110" value="" style="sketch=0;outlineConnect=0;fontColor=#232F3E;gradientColor=none;fillColor=#232F3D;strokeColor=none;dashed=0;verticalLabelPosition=bottom;verticalAlign=top;align=center;html=1;fontSize=12;fontStyle=0;aspect=fixed;pointerEvents=1;shape=mxgraph.aws4.source_code;" parent="1" vertex="1">
          <mxGeometry x="21.04" y="610" width="21.92" height="30" as="geometry" />
        </mxCell>
        <mxCell id="hHBHKOwG4EZxjMmfL8vg-111" value="" style="edgeStyle=orthogonalEdgeStyle;html=1;endArrow=block;elbow=vertical;startArrow=none;endFill=1;strokeColor=#545B64;rounded=0;" parent="1" source="hHBHKOwG4EZxjMmfL8vg-107" target="hHBHKOwG4EZxjMmfL8vg-109" edge="1">
          <mxGeometry width="100" relative="1" as="geometry">
            <mxPoint x="342.96" y="994" as="sourcePoint" />
            <mxPoint x="442.96" y="994" as="targetPoint" />
          </mxGeometry>
        </mxCell>
        <mxCell id="hHBHKOwG4EZxjMmfL8vg-115" value="" style="edgeStyle=orthogonalEdgeStyle;html=1;endArrow=block;elbow=vertical;startArrow=none;endFill=1;strokeColor=#545B64;rounded=0;" parent="1" source="hHBHKOwG4EZxjMmfL8vg-109" target="hHBHKOwG4EZxjMmfL8vg-112" edge="1">
          <mxGeometry width="100" relative="1" as="geometry">
            <mxPoint x="430" y="690" as="sourcePoint" />
            <mxPoint x="530" y="690" as="targetPoint" />
            <Array as="points">
              <mxPoint x="110" y="672" />
              <mxPoint x="110" y="590" />
            </Array>
          </mxGeometry>
        </mxCell>
        <mxCell id="hHBHKOwG4EZxjMmfL8vg-124" value="" style="edgeStyle=orthogonalEdgeStyle;rounded=0;orthogonalLoop=1;jettySize=auto;html=1;" parent="1" source="hHBHKOwG4EZxjMmfL8vg-125" target="hHBHKOwG4EZxjMmfL8vg-127" edge="1">
          <mxGeometry relative="1" as="geometry" />
        </mxCell>
        <mxCell id="hHBHKOwG4EZxjMmfL8vg-125" value="" style="sketch=0;outlineConnect=0;fontColor=#232F3E;gradientColor=none;fillColor=#232F3D;strokeColor=none;dashed=0;verticalLabelPosition=bottom;verticalAlign=top;align=center;html=1;fontSize=12;fontStyle=0;aspect=fixed;pointerEvents=1;shape=mxgraph.aws4.users;" parent="1" vertex="1">
          <mxGeometry x="1045" y="555" width="38" height="38" as="geometry" />
        </mxCell>
        <mxCell id="hHBHKOwG4EZxjMmfL8vg-126" value="" style="edgeStyle=orthogonalEdgeStyle;rounded=0;orthogonalLoop=1;jettySize=auto;html=1;" parent="1" source="hHBHKOwG4EZxjMmfL8vg-127" target="hHBHKOwG4EZxjMmfL8vg-128" edge="1">
          <mxGeometry relative="1" as="geometry" />
        </mxCell>
        <mxCell id="hHBHKOwG4EZxjMmfL8vg-127" value="" style="sketch=0;outlineConnect=0;fontColor=#232F3E;gradientColor=none;fillColor=#232F3D;strokeColor=none;dashed=0;verticalLabelPosition=bottom;verticalAlign=top;align=center;html=1;fontSize=12;fontStyle=0;aspect=fixed;pointerEvents=1;shape=mxgraph.aws4.client;" parent="1" vertex="1">
          <mxGeometry x="1045" y="635" width="39" height="38" as="geometry" />
        </mxCell>
        <mxCell id="hHBHKOwG4EZxjMmfL8vg-129" value="" style="edgeStyle=orthogonalEdgeStyle;rounded=0;orthogonalLoop=1;jettySize=auto;html=1;entryX=1;entryY=0.5;entryDx=0;entryDy=0;entryPerimeter=0;" parent="1" source="hHBHKOwG4EZxjMmfL8vg-128" target="hHBHKOwG4EZxjMmfL8vg-103" edge="1">
          <mxGeometry relative="1" as="geometry" />
        </mxCell>
        <mxCell id="hHBHKOwG4EZxjMmfL8vg-128" value="" style="sketch=0;outlineConnect=0;fontColor=#232F3E;gradientColor=none;fillColor=#232F3D;strokeColor=none;dashed=0;verticalLabelPosition=bottom;verticalAlign=top;align=center;html=1;fontSize=12;fontStyle=0;aspect=fixed;pointerEvents=1;shape=mxgraph.aws4.internet_alt1;" parent="1" vertex="1">
          <mxGeometry x="945" y="639" width="48.75" height="30" as="geometry" />
        </mxCell>
      </root>
    </mxGraphModel>
  </diagram>
</mxfile>
